<svg width="375" height="376" viewBox="0 0 375 376" fill="none" xmlns="http://www.w3.org/2000/svg">
<g clip-path="url(#clip0)">
<path opacity="0.1" d="M122 182.205C272.7 181.605 272.9 235.905 423.6 235.405C574.3 234.805 574.1 180.605 724.8 180.005C875.5 179.405 875.7 233.705 1026.4 233.205" stroke="#4552CB" stroke-width="180" stroke-miterlimit="10" stroke-linecap="round"/>
<path d="M155.358 219.016C155.358 219.016 129.451 229.706 114.803 216.657C111.228 213.465 106.436 209.073 103.744 203.267C110.545 206.286 113.114 205.646 113.114 205.646C113.114 205.646 107.634 203.337 104.32 197.379C100.578 190.736 99.66 180.911 99.743 176.573C100.96 177.773 103.769 178.124 103.769 178.124C103.769 178.124 103.7 159.196 119.57 152.058C118.794 155.614 120.118 157.756 120.118 157.756C120.118 157.756 122.39 155.049 130.006 153.171C142.942 149.928 149.136 156.866 149.136 156.866C149.136 156.866 127.467 158.868 121.409 180.746C119.306 188.335 130.44 208.304 154.64 208.436" fill="white"/>
<path d="M160.036 218.169C160.036 218.169 134.622 227.308 120.107 214.308C116.532 211.116 114.942 208.877 114.499 207.208C121.301 210.227 123.87 209.587 123.87 209.587C123.87 209.587 117.295 208.006 108.998 196.532C105.56 191.733 104.691 186.294 104.732 181.866C105.95 183.065 108.758 183.416 108.758 183.416C108.758 183.416 104.749 167.639 117.332 158.166C116.556 161.723 117.88 163.865 117.88 163.865C117.88 163.865 127.068 154.203 134.642 152.234C147.578 148.991 153.772 155.929 153.772 155.929C153.772 155.929 132.103 157.93 126.045 179.809C123.942 187.398 135.076 207.367 159.276 207.499" fill="#F1A852"/>
<path d="M151.267 238.553L154.067 242.353C154.467 242.953 155.167 243.253 155.867 243.253H161.467L173.367 234.253C173.367 234.253 179.967 240.253 192.467 241.253C204.967 242.253 216.267 237.153 216.267 237.153L225.267 242.753C225.567 242.953 225.967 243.053 226.267 243.053L234.367 243.253C235.067 243.253 235.667 242.953 235.967 242.353L238.667 237.753C238.867 237.353 238.767 236.953 238.367 236.753L234.267 234.453C233.867 234.253 233.567 233.653 233.767 233.153L238.867 212.753C239.167 211.653 239.067 210.553 238.767 209.453L228.767 179.553L220.067 91.9529L214.967 76.2529L194.967 91.9529L169.467 94.0529L163.867 138.253C163.867 138.253 164.467 151.253 164.467 156.253C164.367 174.253 156.667 193.353 156.667 193.353C156.567 194.253 156.067 195.053 155.867 195.853C152.667 205.453 151.967 213.653 152.467 217.853C152.967 222.453 154.467 227.853 155.267 230.553C155.567 231.653 155.267 232.753 154.467 233.553L151.367 236.453C150.867 236.953 150.767 237.853 151.267 238.553Z" fill="#FAF8F8"/>
<path d="M167.567 191.053L161.267 178.953C159.167 187.353 156.767 193.253 156.767 193.253C156.667 194.153 156.167 194.953 155.967 195.753C155.367 197.653 154.767 199.553 154.367 201.253L163.867 212.053L167.567 191.053Z" fill="#ED6D4E"/>
<path d="M228.667 177.953L237.567 205.853L224.067 212.153L225.367 182.653L228.667 177.953Z" fill="#ED6D4E"/>
<path d="M161.167 244.553L162.867 247.553C163.067 247.953 163.467 248.153 163.867 248.153H176.367C176.967 248.153 177.467 247.653 177.567 247.053L180.467 213.153V213.053V187.353C180.467 187.153 180.467 187.053 180.367 186.853C179.267 183.553 168.167 147.953 168.267 143.053C168.467 135.853 174.567 124.753 175.367 122.953C175.467 122.853 175.467 122.653 175.467 122.553V106.953C175.467 105.653 173.767 105.253 173.167 106.353L162.567 126.853C162.567 126.953 162.467 126.953 162.467 127.053L157.867 141.753C157.867 141.853 157.767 142.053 157.867 142.253L159.867 165.353L161.567 184.353L162.867 211.053L164.167 235.753C164.167 235.953 164.167 236.153 164.067 236.253L161.067 243.653C160.967 243.853 160.967 244.253 161.167 244.553Z" fill="white"/>
<path d="M180.567 192.653C180.567 192.653 161.467 182.153 161.167 179.853C160.867 177.553 157.667 138.053 157.667 138.053C157.667 138.053 157.667 135.753 160.367 127.153C163.067 118.553 167.867 92.9531 167.867 92.9531L175.867 98.4531L176.167 118.253C176.167 118.553 176.367 121.753 175.867 123.553L170.067 136.753C169.267 139.253 169.567 143.553 169.867 146.653L181.267 184.653C181.267 184.753 181.267 184.853 181.267 184.953L180.567 192.653Z" fill="#F1A852"/>
<path d="M212.167 246.353L208.167 189.053C208.067 188.253 208.167 187.453 208.467 186.753L214.467 166.953V166.853C214.867 165.953 219.767 150.753 219.967 145.853C220.167 140.853 216.267 127.153 214.567 121.153C213.167 116.253 214.067 107.953 214.467 105.153C214.567 104.553 215.067 104.153 215.567 104.153H221.567C222.067 104.153 222.567 104.553 222.667 105.053L230.067 133.853C230.067 133.853 230.067 133.853 230.067 133.953L231.967 140.053C231.967 140.153 232.067 140.353 231.967 140.453L228.667 179.553L223.667 235.953C223.667 236.153 223.667 236.353 223.767 236.553L226.067 241.653C226.267 242.053 226.367 242.553 226.367 242.953V246.353C226.367 247.453 225.467 248.253 224.467 248.253H214.067C213.167 248.253 212.267 247.453 212.167 246.353Z" fill="white"/>
<path opacity="0.04" d="M167.167 95.7531L217.067 130.253L224.067 91.7531L221.067 75.4531L191.567 90.9531L167.567 93.4531L167.167 95.7531Z" fill="#3C3C56"/>
<path d="M229.067 176.853L232.167 140.353C232.167 140.253 232.167 140.053 232.167 139.953L230.267 133.853C230.267 133.853 230.267 133.853 230.267 133.753L222.867 104.653C222.767 104.153 222.267 103.453 221.767 103.453H215.767C215.167 103.453 214.667 104.253 214.667 104.753C214.267 107.553 213.367 116.053 214.767 120.953C216.567 126.953 220.367 140.753 220.167 145.753C219.967 150.653 214.967 165.853 214.667 166.753V166.853L208.667 186.653C208.467 187.353 208.367 188.153 208.367 188.953L208.467 190.953C213.067 189.353 222.167 185.353 229.067 176.853Z" fill="#F1A852"/>
<path d="M166.467 86.0532L165.767 63.8533C165.767 63.8533 169.367 48.3532 169.867 48.0532C170.367 47.7532 188.667 29.6533 188.667 29.6533L218.967 41.6533L220.967 78.8533L199.167 97.1533L166.467 86.0532Z" fill="#F1A852"/>
<path d="M169.467 96.5529L189.067 104.053C190.267 104.453 191.667 104.053 192.467 103.053L199.267 97.153C200.467 95.753 201.267 94.0528 201.467 92.2528C202.067 87.4528 202.367 77.2529 196.967 66.8529C196.667 66.2529 196.567 65.5529 196.667 64.8529C197.467 60.5529 200.367 47.853 201.667 42.153C201.767 41.753 201.167 41.453 200.967 41.853L189.867 62.4529C189.467 63.153 188.967 63.653 188.267 63.853C184.967 65.153 174.467 70.0529 167.667 80.5529C166.967 81.6529 166.567 82.853 166.567 84.153L167.267 93.2528C167.167 94.8528 168.067 96.1529 169.467 96.5529Z" fill="white"/>
<path d="M172.567 90.9531L178.067 95.5531C179.667 96.6531 181.867 97.1531 183.767 97.1531L191.567 96.1531" stroke="#DDDDDD" stroke-width="2" stroke-miterlimit="10" stroke-linecap="round" stroke-linejoin="round"/>
<path d="M183.267 91.7528C182.467 91.6528 181.767 91.2528 181.267 90.6528C179.767 88.8528 177.067 83.9528 178.067 78.7528C179.167 73.3528 190.667 78.5528 190.667 78.5528C190.667 78.5528 195.067 80.3528 195.067 83.5528C194.967 86.8528 190.667 92.5528 183.267 91.7528Z" fill="#382F2D"/>
<path d="M174.567 51.2529C174.567 51.2529 175.367 61.0529 183.967 56.5529C184.667 51.3529 178.767 47.6529 174.567 51.2529Z" fill="#382F2D"/>
<path d="M204.667 63.3531C204.667 63.3531 207.267 72.3531 214.967 66.5531C212.367 57.3531 204.667 63.3531 204.667 63.3531Z" fill="#382F2D"/>
<path d="M169.567 51.3529C169.567 51.3529 177.667 35.9529 182.467 29.5529C183.467 28.2529 189.067 29.6529 189.067 29.6529L169.567 51.3529Z" fill="#C7482C"/>
<path d="M157.367 89.7532C157.367 89.7532 150.567 85.6533 147.267 71.9532C144.867 61.7532 145.367 52.5532 145.767 48.5532C145.867 47.1532 149.167 42.9533 158.467 39.1533L182.467 29.6533L171.467 47.6533C170.967 48.4533 170.567 49.3533 170.167 50.3533C168.567 54.8533 163.667 69.0532 163.267 74.9532C162.767 81.3533 163.367 94.1532 157.367 89.7532Z" fill="#ED6D4E"/>
<path d="M219.067 41.6533C219.067 41.6533 238.067 68.9533 240.267 79.6533C242.467 90.3533 235.267 105.653 220.067 108.853C204.867 112.053 217.267 93.8533 218.867 79.8533C220.467 65.8533 219.067 41.6533 219.067 41.6533Z" fill="#ED6D4E"/>
<path d="M219.467 64.9529L215.367 40.2529L219.067 41.6529L219.467 64.9529Z" fill="#C7482C"/>
</g>
<defs>
<clipPath id="clip0">
<rect width="375" height="376" fill="white"/>
</clipPath>
</defs>
</svg>
