<?xml version="1.0" encoding="UTF-8"?>
<svg xmlns="http://www.w3.org/2000/svg" xmlns:xlink="http://www.w3.org/1999/xlink" width="792pt" height="612pt" viewBox="0 0 792 612" version="1.1">
<g id="surface1">
<path style=" stroke:none;fill-rule:nonzero;fill:rgb(44.871521%,57.670593%,24.62616%);fill-opacity:1;" d="M 141.191406 245.695313 C 141.210938 245.699219 141.230469 245.703125 141.253906 245.703125 C 141.253906 245.707031 141.273438 245.703125 141.300781 245.695313 C 141.242188 245.691406 141.175781 245.6875 141.191406 245.695313 "/>
<path style=" stroke:none;fill-rule:nonzero;fill:rgb(44.871521%,57.670593%,24.62616%);fill-opacity:1;" d="M 237.757813 295.488281 C 238.820313 284.902344 241.855469 274.972656 246.4375 266.128906 C 244.722656 264.710938 243 263.289063 241.257813 261.847656 C 232.550781 254.640625 223.332031 247.355469 213.515625 240.265625 C 203.65625 233.214844 193.3125 226.273438 181.71875 220.136719 C 175.902344 217.089844 169.773438 214.210938 162.898438 211.855469 C 159.457031 210.683594 155.78125 209.664063 151.773438 208.902344 C 150.769531 208.71875 149.773438 208.527344 148.691406 208.410156 C 147.617188 208.28125 146.59375 208.128906 145.445313 208.074219 C 144.304688 208.011719 143.234375 207.90625 142.015625 207.925781 L 140.234375 207.9375 C 139.917969 207.949219 139.683594 207.941406 139.296875 207.964844 L 138.140625 208.046875 C 136.683594 208.160156 134.707031 208.402344 134.347656 208.488281 L 133.265625 208.667969 L 133.128906 208.691406 C 133.273438 208.660156 131.476563 209.011719 132.132813 208.886719 L 131.699219 209 L 130.835938 209.226563 C 128.542969 209.859375 126.222656 210.441406 124.089844 211.441406 C 123.007813 211.902344 121.925781 212.378906 120.859375 212.867188 C 119.832031 213.390625 118.855469 213.972656 117.863281 214.542969 C 116.898438 215.128906 115.851563 215.679688 114.984375 216.320313 C 114.097656 216.957031 113.226563 217.613281 112.363281 218.269531 C 105.535156 223.597656 100.898438 229.589844 97.21875 235.195313 C 93.558594 240.847656 90.804688 246.285156 88.378906 251.472656 C 85.964844 256.660156 83.894531 261.628906 82 266.324219 C 78.191406 275.722656 74.929688 284.214844 71.449219 291.550781 C 69.773438 295.285156 67.953125 298.59375 66.199219 301.800781 C 65.273438 303.324219 64.390625 304.878906 63.449219 306.28125 C 62.964844 306.984375 62.484375 307.671875 62.015625 308.347656 C 61.785156 308.695313 61.554688 309.042969 61.328125 309.386719 C 61.082031 309.710938 60.839844 310.023438 60.597656 310.339844 C 59.617188 311.597656 58.699219 312.910156 57.667969 313.976563 C 56.660156 315.089844 55.738281 316.296875 54.699219 317.230469 C 52.71875 319.285156 50.679688 320.96875 48.792969 322.566406 C 46.8125 323.917969 45.015625 325.464844 43.371094 326.351563 C 41.734375 327.386719 40.320313 328.347656 38.964844 328.972656 C 37.667969 329.632813 36.679688 330.15625 36.015625 330.523438 C 35.351563 330.886719 35.007813 331.070313 35.007813 331.070313 L 35.253906 332.402344 C 35.253906 332.402344 35.640625 332.457031 36.390625 332.554688 C 37.148438 332.664063 38.261719 332.796875 39.707031 332.945313 C 42.542969 333.246094 47.253906 333.152344 52.941406 332.195313 C 58.605469 331.058594 65.589844 328.726563 72.714844 324.335938 C 76.339844 322.21875 79.796875 319.46875 83.371094 316.480469 C 86.796875 313.410156 90.269531 309.976563 93.453125 306.21875 C 99.960938 298.730469 105.738281 290.070313 111.238281 281.257813 C 113.867188 276.996094 116.566406 272.617188 119.332031 268.144531 C 122.007813 263.886719 124.6875 259.761719 127.398438 256.242188 C 130.085938 252.714844 132.828125 249.882813 135.164063 248.25 C 135.457031 248.054688 135.75 247.863281 136.023438 247.644531 C 136.296875 247.414063 136.574219 247.355469 136.839844 247.1875 C 137.101563 247.050781 137.359375 246.859375 137.621094 246.726563 C 137.882813 246.644531 138.140625 246.550781 138.390625 246.441406 C 138.871094 246.148438 139.421875 246.140625 139.921875 245.933594 L 140.113281 245.859375 L 140.164063 245.84375 L 140.691406 245.75 C 141.546875 245.582031 141.398438 245.664063 141.300781 245.691406 C 141.316406 245.691406 141.34375 245.695313 141.34375 245.695313 L 141.769531 245.691406 C 142.019531 245.652344 142.421875 245.722656 142.75 245.722656 C 143.066406 245.714844 143.503906 245.796875 143.890625 245.832031 C 144.277344 245.859375 144.730469 245.9375 145.175781 246.011719 C 146.976563 246.304688 149.039063 246.789063 151.226563 247.480469 C 155.617188 248.859375 160.40625 250.796875 165.230469 253.085938 C 174.929688 257.632813 184.859375 263.269531 194.601563 269.050781 C 204.371094 274.835938 214.019531 280.839844 223.449219 286.648438 C 225.800781 288.117188 228.136719 289.574219 230.445313 291.015625 C 232.78125 292.445313 235.089844 293.859375 237.378906 295.257813 C 237.503906 295.335938 237.632813 295.410156 237.757813 295.488281 "/>
<path style=" stroke:none;fill-rule:nonzero;fill:rgb(6.278992%,5.741882%,5.058289%);fill-opacity:1;" d="M 323.488281 210.316406 L 326.933594 210.734375 L 326.425781 214.167969 C 324.800781 225.140625 325.589844 234.953125 327.351563 236.074219 L 327.726563 236.351563 C 327.753906 236.375 332.203125 239.992188 342.214844 242.648438 C 346.511719 243.648438 354.308594 248.902344 352.359375 261.472656 C 352.078125 264.011719 352.230469 268.429688 353.453125 269.960938 C 353.710938 270.289063 359.542969 277.769531 357.3125 286.410156 C 357.136719 288.167969 356.136719 295.359375 351.101563 299.691406 C 348.148438 302.234375 344.464844 303.328125 340.140625 302.941406 C 331.871094 301.96875 320.246094 302.863281 319.660156 307.03125 L 319.617188 307.34375 C 319.847656 307.976563 322.097656 312.367188 339.816406 315.621094 C 350.957031 316.90625 369.761719 318.765625 373.140625 318.320313 L 373.378906 318.289063 L 373.621094 318.292969 C 374.957031 318.304688 408.46875 317.136719 433.007813 339.558594 C 435.558594 321.820313 427.800781 302.769531 427.800781 302.769531 C 414.714844 271.605469 388.679688 257.660156 388.679688 257.660156 C 380.960938 254.484375 373.648438 241.640625 373.648438 241.640625 C 368.746094 233.796875 364.824219 220.519531 364.824219 220.519531 C 358.289063 190.898438 328.871094 171.375 328.871094 171.375 C 316.78125 163.203125 315.800781 156.667969 315.800781 156.667969 C 322.664063 108.949219 292.917969 96.855469 292.917969 96.855469 C 291.785156 96.433594 290.8125 96.261719 289.976563 96.261719 C 285.609375 96.261719 285.078125 101.105469 285.078125 101.105469 C 284.421875 105.03125 279.195313 123.332031 279.195313 123.332031 C 275.589844 137.964844 266.910156 139.441406 263.554688 139.441406 C 262.707031 139.441406 262.199219 139.34375 262.199219 139.34375 C 256.96875 138.472656 252.902344 138.183594 249.800781 138.183594 C 243.609375 138.183594 241.28125 139.34375 241.28125 139.34375 C 231.957031 143.015625 231.148438 153.726563 231.148438 153.726563 C 231.148438 159.9375 225.59375 160.261719 225.59375 160.261719 C 225.234375 160.246094 224.871094 160.238281 224.492188 160.238281 C 215.394531 160.238281 201.421875 164.816406 201.421875 164.816406 C 200.992188 164.628906 200.132813 164.578125 199.25 164.578125 C 197.925781 164.578125 196.558594 164.699219 196.558594 164.699219 C 193.214844 165.222656 192.132813 167.964844 192.132813 167.964844 C 189.289063 173.496094 191.332031 176.40625 191.332031 176.40625 C 195.710938 181.292969 196.832031 189.679688 196.832031 189.679688 C 199.742188 212.488281 216.765625 216.152344 216.765625 216.152344 C 218.058594 216.089844 219.34375 216.058594 220.613281 216.058594 C 239.210938 216.058594 254.683594 222.363281 254.683594 222.363281 C 262.25 224.886719 266.8125 235.128906 269.269531 243.035156 C 275.480469 239.667969 285.398438 234.785156 290.339844 233.253906 C 293.839844 228.203125 308.539063 208.503906 323.488281 210.316406 "/>
<path style=" stroke:none;fill-rule:nonzero;fill:rgb(82.806396%,37.887573%,13.452148%);fill-opacity:1;" d="M 449.742188 282.503906 C 434.625 262.089844 421.132813 245.46875 412.488281 235.125 C 409.910156 231.984375 387.742188 203.714844 402.847656 178.929688 C 409.679688 168.542969 419.355469 167.738281 422.15625 167.738281 C 422.550781 167.738281 422.78125 167.753906 422.921875 167.761719 C 434.085938 167.761719 443.160156 176.839844 443.160156 188.003906 C 443.160156 197.472656 436.453125 205.785156 427.210938 207.78125 C 425.734375 208.066406 424.21875 208.222656 422.703125 208.234375 C 421.972656 208.238281 421.433594 208.816406 421.410156 209.546875 C 421.386719 210.269531 421.988281 210.890625 422.714844 210.941406 C 422.75 210.941406 422.886719 210.945313 422.921875 210.945313 C 424.515625 210.945313 426.128906 210.773438 427.726563 210.433594 L 427.738281 210.433594 C 427.746094 210.433594 427.75 210.429688 427.753906 210.429688 L 427.761719 210.429688 C 440.410156 207.933594 449.589844 196.769531 449.589844 183.859375 C 449.589844 168.574219 437.023438 155.757813 422.410156 156.777344 C 414.121094 157.339844 409.851563 159.863281 409.257813 160.242188 C 394.996094 167.832031 386.480469 183.222656 386.480469 201.429688 C 386.480469 212.640625 391.566406 226.367188 396.601563 234.996094 C 399.8125 240.488281 412.132813 257.742188 423.003906 272.960938 C 427.15625 278.773438 429.644531 282.25 432.800781 286.710938 C 442.4375 302.257813 455.613281 331.585938 441.214844 360.09375 C 437.699219 354.703125 433.597656 349.882813 431.316406 347.320313 C 409.453125 324.664063 376.335938 325.136719 373.734375 325.054688 C 367.914063 325.613281 343.78125 322.882813 338.929688 322.320313 L 338.707031 322.289063 C 325.035156 319.789063 316.679688 315.996094 313.875 311.007813 C 312.757813 309.023438 312.679688 307.117188 313.011719 305.828125 C 315.0625 293.523438 338.191406 295.90625 340.839844 296.21875 C 343.210938 296.425781 345.152344 295.894531 346.695313 294.570313 C 350.140625 291.601563 350.59375 285.675781 350.597656 285.617188 L 350.617188 285.257813 L 350.71875 284.90625 C 352.238281 279.492188 348.195313 274.210938 348.15625 274.15625 C 344.757813 269.910156 345.476563 262.140625 345.652344 260.625 L 345.671875 260.492188 C 347.191406 250.859375 340.851563 249.269531 340.582031 249.207031 C 329.910156 246.375 324.59375 242.488281 323.535156 241.652344 C 318.007813 237.855469 318.351563 225.292969 319.226563 217.183594 C 309.539063 219.09375 298.890625 232.453125 295.25 238.058594 L 294.425781 239.324219 L 292.929688 239.558594 C 289.476563 240.089844 275.285156 245.875 268.714844 250.683594 C 229.230469 280.582031 246.460938 340.792969 251.765625 356.351563 C 256.433594 352.230469 260.472656 349.84375 263.664063 348.476563 C 265.425781 347.652344 267.925781 346.523438 270.726563 345.390625 C 247.347656 309.460938 271.210938 280.570313 271.210938 280.570313 C 277.546875 281.414063 283.929688 334.4375 284.714844 341.144531 C 286.121094 340.941406 287.410156 340.875 288.515625 340.992188 C 282.203125 301.761719 297.363281 283.726563 297.363281 283.726563 C 302.773438 294.097656 296.914063 341.894531 296.914063 341.894531 L 309.089844 348.207031 C 309.089844 348.207031 313.707031 351.136719 314.046875 355.535156 C 314.046875 355.535156 314.894531 360.605469 316.921875 362.300781 C 316.921875 362.300781 322.164063 366.1875 321.148438 372.273438 C 321.148438 372.273438 320.8125 380.730469 315.738281 382.761719 C 315.738281 382.761719 307.960938 385.296875 305.425781 386.140625 C 305.425781 386.140625 297.476563 387.664063 297.984375 394.9375 C 297.984375 394.9375 298.683594 399.765625 301.449219 402.277344 C 301.882813 402.589844 302.480469 402.992188 303.203125 403.398438 C 303.203125 403.398438 303.203125 403.398438 303.203125 403.402344 C 304.710938 404.261719 306.730469 405.140625 308.808594 405.25 C 308.808594 405.25 334.792969 408.859375 343.359375 422.613281 C 343.359375 422.613281 354.859375 437.042969 356.433594 451.925781 C 358.234375 468.894531 364.609375 474.175781 365.882813 475.074219 C 368.011719 475.121094 369.679688 474.855469 370.59375 474.664063 C 372.859375 474.265625 377.445313 473.355469 383.484375 471.667969 C 383.5 471.660156 383.515625 471.65625 383.53125 471.652344 C 407.589844 464.910156 454.566406 445.703125 469.9375 396.371094 C 474.457031 384.089844 476.894531 371.210938 476.894531 358.578125 C 476.894531 330.59375 467.746094 304.984375 449.742188 282.503906 "/>
<path style=" stroke:none;fill-rule:nonzero;fill:rgb(44.871521%,57.670593%,24.62616%);fill-opacity:1;" d="M 696.617188 399.144531 C 695.632813 399.046875 694.648438 398.953125 693.664063 398.867188 C 688.214844 398.398438 682.757813 398.09375 677.316406 397.859375 C 671.871094 397.609375 666.433594 397.523438 661.011719 397.425781 C 655.59375 397.324219 650.1875 397.304688 644.804688 397.28125 L 628.722656 397.121094 C 626.050781 397.105469 623.394531 397.039063 620.742188 396.96875 C 618.082031 396.925781 615.441406 396.808594 612.804688 396.691406 C 610.160156 396.59375 607.539063 396.425781 604.921875 396.269531 C 602.296875 396.140625 599.699219 395.902344 597.101563 395.667969 C 594.496094 395.472656 591.929688 395.128906 589.363281 394.8125 C 586.785156 394.539063 584.261719 394.070313 581.726563 393.6875 C 576.664063 392.871094 571.699219 391.777344 566.835938 390.457031 C 565.605469 390.171875 564.417969 389.777344 563.226563 389.386719 L 559.652344 388.242188 C 557.277344 387.46875 555.003906 386.488281 552.667969 385.632813 C 550.394531 384.660156 548.183594 383.570313 545.933594 382.554688 L 539.492188 378.976563 C 537.457031 377.609375 535.378906 376.3125 533.355469 374.933594 C 531.421875 373.425781 529.425781 372 527.523438 370.453125 C 525.703125 368.796875 523.835938 367.203125 522.039063 365.523438 L 516.886719 360.191406 L 511.863281 354.992188 L 505.828125 357.976563 L 502.429688 359.65625 C 501.308594 360.238281 500.167969 360.789063 499.070313 361.398438 C 497.984375 362.03125 496.890625 362.648438 495.820313 363.300781 C 494.75 363.953125 493.664063 364.578125 492.621094 365.273438 C 490.546875 366.671875 488.507813 368.128906 486.496094 369.609375 C 485.183594 370.667969 483.886719 371.738281 482.605469 372.824219 C 481.941406 379.589844 480.636719 386.144531 478.769531 392.425781 C 479.21875 392.214844 479.679688 392.015625 480.121094 391.796875 C 481.171875 391.289063 482.1875 390.746094 483.261719 390.269531 C 485.375 389.273438 487.46875 388.285156 489.511719 387.242188 C 491.613281 386.269531 493.664063 385.242188 495.691406 384.199219 C 497.753906 383.199219 499.804688 382.207031 501.808594 381.136719 C 503.855469 380.140625 505.882813 379.136719 507.878906 378.082031 L 507.925781 378.058594 L 508.96875 379.128906 C 511.113281 381.117188 513.351563 383.011719 515.550781 384.953125 C 517.832031 386.792969 520.230469 388.503906 522.570313 390.277344 C 524.992188 391.9375 527.519531 393.449219 530.003906 395.015625 C 532.578125 396.425781 535.183594 397.785156 537.78125 399.132813 C 540.460938 400.296875 543.121094 401.53125 545.820313 402.617188 C 548.5625 403.578125 551.269531 404.660156 554.039063 405.503906 L 558.203125 406.691406 C 559.59375 407.089844 560.980469 407.492188 562.382813 407.777344 C 567.972656 409.101563 573.589844 410.132813 579.191406 410.847656 C 581.992188 411.195313 584.800781 411.566406 587.59375 411.734375 C 590.386719 411.949219 593.183594 412.1875 595.964844 412.265625 C 598.746094 412.386719 601.523438 412.515625 604.289063 412.519531 C 607.054688 412.574219 609.820313 412.605469 612.566406 412.53125 C 615.316406 412.492188 618.066406 412.445313 620.796875 412.332031 C 623.53125 412.242188 626.265625 412.148438 628.976563 412.003906 C 634.425781 411.769531 639.832031 411.378906 645.222656 411.035156 L 661.339844 409.925781 C 666.695313 409.542969 672.035156 409.246094 677.371094 408.941406 C 682.703125 408.640625 688.03125 408.464844 693.351563 408.335938 C 693.964844 408.332031 694.582031 408.320313 695.191406 408.308594 C 695.503906 405.554688 695.964844 402.234375 696.617188 399.144531 "/>
<path style=" stroke:none;fill-rule:nonzero;fill:rgb(44.871521%,57.670593%,24.62616%);fill-opacity:1;" d="M 749.5625 411.222656 L 741.917969 408.316406 C 739.332031 407.449219 736.707031 406.695313 734.089844 405.878906 C 731.453125 405.144531 728.796875 404.507813 726.140625 403.816406 C 723.46875 403.1875 720.789063 402.648438 718.09375 402.105469 C 716.695313 401.835938 715.289063 401.601563 713.875 401.375 L 713.875 408.5625 C 715.007813 408.605469 716.140625 408.652344 717.269531 408.726563 C 719.910156 408.960938 722.578125 409.074219 725.230469 409.328125 C 727.867188 409.632813 730.527344 409.886719 733.167969 410.238281 L 741.078125 411.511719 L 748.957031 413.113281 C 751.546875 413.792969 754.15625 414.453125 756.789063 415.105469 L 756.992188 414.570313 C 754.535156 413.4375 752.058594 412.316406 749.5625 411.222656 "/>
<path style=" stroke:none;fill-rule:nonzero;fill:rgb(6.278992%,5.741882%,5.058289%);fill-opacity:1;" d="M 450.820313 481.894531 L 450.820313 444.15625 C 448.328125 446.601563 445.648438 449 442.785156 451.328125 L 442.785156 489.226563 L 460.597656 489.226563 L 460.597656 476.5625 C 460.597656 476.5625 456.328125 481.855469 450.820313 481.894531 "/>
<path style=" stroke:none;fill-rule:nonzero;fill:rgb(6.278992%,5.741882%,5.058289%);fill-opacity:1;" d="M 472.183594 477.800781 C 472.238281 477.488281 472.300781 477.199219 472.382813 476.9375 C 472.558594 476.363281 472.917969 475.839844 473.457031 475.371094 C 473.746094 475.15625 474.199219 474.949219 474.804688 474.75 C 475.417969 474.554688 476.082031 474.453125 476.804688 474.453125 L 477.285156 474.453125 L 477.285156 482.382813 L 472.183594 482.382813 Z M 483.703125 461.410156 C 482.765625 460.152344 481.0625 459.523438 478.582031 459.523438 L 465.046875 459.523438 L 465.046875 466.101563 L 475.667969 466.101563 C 475.957031 466.101563 476.300781 466.15625 476.691406 466.265625 C 477.085938 466.371094 477.285156 466.800781 477.285156 467.554688 L 477.285156 469.011719 L 474.59375 469.011719 C 473.621094 469.011719 472.558594 469.214844 471.414063 469.628906 C 470.257813 470.042969 469.191406 470.671875 468.203125 471.519531 C 467.214844 472.363281 466.386719 473.417969 465.71875 474.671875 C 465.058594 475.929688 464.722656 477.402344 464.722656 479.089844 L 464.722656 481.625 C 464.722656 484.214844 465.382813 486.128906 466.695313 487.367188 C 468.003906 488.609375 469.773438 489.226563 472.003906 489.226563 L 477.195313 489.226563 C 481.722656 489.519531 485.101563 491.367188 485.101563 491.367188 L 485.101563 466.371094 C 485.101563 464.324219 484.636719 462.667969 483.703125 461.410156 "/>
<path style=" stroke:none;fill-rule:nonzero;fill:rgb(6.278992%,5.741882%,5.058289%);fill-opacity:1;" d="M 560.105469 471.78125 C 560.167969 470.332031 560.359375 469.101563 560.671875 468.09375 C 560.988281 467.085938 561.621094 466.171875 562.5625 465.347656 C 563.070313 464.96875 563.859375 464.609375 564.929688 464.261719 C 566 463.914063 567.167969 463.742188 568.429688 463.742188 L 569.28125 463.742188 L 569.28125 477.644531 L 560.105469 477.644531 Z M 580.539063 440.851563 C 578.898438 438.644531 575.902344 437.539063 571.550781 437.539063 L 547.808594 437.539063 L 547.808594 449.078125 L 566.441406 449.078125 C 566.945313 449.078125 567.546875 449.175781 568.238281 449.363281 C 568.933594 449.550781 569.28125 450.308594 569.28125 451.632813 L 569.28125 454.1875 L 564.550781 454.1875 C 562.847656 454.1875 560.988281 454.550781 558.972656 455.273438 C 556.949219 456 555.078125 457.105469 553.339844 458.585938 C 551.605469 460.066406 550.160156 461.914063 548.992188 464.121094 C 547.824219 466.332031 547.242188 468.914063 547.242188 471.875 L 547.242188 476.320313 C 547.242188 480.859375 548.390625 484.222656 550.695313 486.394531 C 552.996094 488.570313 556.101563 489.660156 560.015625 489.660156 L 566.8125 489.660156 C 575.957031 489.902344 583 496.023438 583 496.023438 L 583 449.550781 C 583 445.960938 582.175781 443.058594 580.539063 440.851563 "/>
<path style=" stroke:none;fill-rule:nonzero;fill:rgb(6.278992%,5.741882%,5.058289%);fill-opacity:1;" d="M 645.332031 471.78125 C 645.394531 470.332031 645.585938 469.101563 645.898438 468.09375 C 646.214844 467.085938 646.84375 466.171875 647.792969 465.347656 C 648.292969 464.96875 649.082031 464.609375 650.152344 464.261719 C 651.226563 463.914063 652.390625 463.742188 653.65625 463.742188 L 654.507813 463.742188 L 654.507813 477.644531 L 645.332031 477.644531 Z M 665.765625 440.851563 C 664.121094 438.644531 661.128906 437.539063 656.777344 437.539063 L 633.035156 437.539063 L 633.035156 449.078125 L 651.671875 449.078125 C 652.171875 449.078125 652.773438 449.175781 653.46875 449.363281 C 654.160156 449.550781 654.507813 450.308594 654.507813 451.632813 L 654.507813 454.1875 L 649.773438 454.1875 C 648.074219 454.1875 646.214844 454.550781 644.199219 455.273438 C 642.179688 456 640.300781 457.105469 638.570313 458.585938 C 636.835938 460.066406 635.382813 461.914063 634.21875 464.121094 C 633.050781 466.332031 632.46875 468.914063 632.46875 471.875 L 632.46875 476.320313 C 632.46875 480.859375 633.617188 484.222656 635.921875 486.394531 C 638.222656 488.570313 641.328125 489.660156 645.238281 489.660156 L 652.035156 489.660156 C 661.1875 489.902344 668.222656 496.023438 668.222656 496.023438 L 668.222656 449.550781 C 668.222656 445.960938 667.402344 443.058594 665.765625 440.851563 "/>
<path style=" stroke:none;fill-rule:nonzero;fill:rgb(6.278992%,5.741882%,5.058289%);fill-opacity:1;" d="M 687.898438 452.105469 C 687.898438 451.222656 688.179688 450.453125 688.742188 449.789063 C 689.300781 449.128906 690.300781 448.796875 691.742188 448.796875 L 697.546875 448.796875 L 697.546875 477.644531 L 687.898438 477.644531 Z M 697.546875 426.523438 L 697.546875 437.539063 L 687.898438 437.539063 C 686.503906 437.539063 685.054688 437.742188 683.5625 438.152344 C 682.070313 438.566406 680.6875 439.277344 679.414063 440.28125 C 678.144531 441.292969 677.097656 442.648438 676.273438 444.351563 C 675.445313 446.054688 675.035156 448.195313 675.035156 450.785156 L 675.035156 476.320313 C 675.035156 477.835938 675.238281 479.394531 675.652344 481.003906 C 676.066406 482.613281 676.761719 484.046875 677.75 485.308594 C 678.730469 486.570313 680.050781 487.613281 681.707031 488.429688 C 683.359375 489.25 685.421875 489.660156 687.898438 489.660156 L 694.980469 489.660156 C 704.128906 489.902344 711.167969 496.023438 711.167969 496.023438 L 711.167969 376.839844 C 696.023438 388.941406 697.546875 426.523438 697.546875 426.523438 "/>
<path style=" stroke:none;fill-rule:nonzero;fill:rgb(6.278992%,5.741882%,5.058289%);fill-opacity:1;" d="M 730.558594 471.78125 C 730.621094 470.332031 730.808594 469.101563 731.125 468.09375 C 731.441406 467.085938 732.074219 466.171875 733.019531 465.347656 C 733.523438 464.96875 734.308594 464.609375 735.382813 464.261719 C 736.457031 463.914063 737.621094 463.742188 738.882813 463.742188 L 739.734375 463.742188 L 739.734375 477.644531 L 730.558594 477.644531 Z M 750.988281 440.851563 C 749.347656 438.644531 746.355469 437.539063 742.003906 437.539063 L 718.257813 437.539063 L 718.257813 449.078125 L 736.898438 449.078125 C 737.398438 449.078125 738 449.175781 738.691406 449.363281 C 739.382813 449.550781 739.734375 450.308594 739.734375 451.632813 L 739.734375 454.1875 L 735.003906 454.1875 C 733.300781 454.1875 731.441406 454.550781 729.421875 455.273438 C 727.40625 456 725.53125 457.105469 723.796875 458.585938 C 722.0625 460.066406 720.609375 461.914063 719.445313 464.121094 C 718.273438 466.332031 717.695313 468.914063 717.695313 471.875 L 717.695313 476.320313 C 717.695313 480.859375 718.84375 484.222656 721.144531 486.394531 C 723.445313 488.570313 726.550781 489.660156 730.464844 489.660156 L 737.265625 489.660156 C 746.410156 489.902344 753.453125 496.023438 753.453125 496.023438 L 753.453125 449.550781 C 753.453125 445.960938 752.628906 443.058594 750.988281 440.851563 "/>
<path style=" stroke:none;fill-rule:nonzero;fill:rgb(6.278992%,5.741882%,5.058289%);fill-opacity:1;" d="M 542.984375 508.023438 C 540.597656 498.457031 540.015625 485.945313 539.917969 477.882813 C 539.40625 463.960938 539.046875 442.871094 540.539063 425.914063 C 540.964844 420.449219 541.75 412.726563 543.042969 408.78125 C 543.042969 408.78125 536.019531 406.511719 518.035156 449.367188 L 516.605469 449.367188 C 511.585938 441.949219 508.027344 395.859375 508.027344 395.859375 C 493.386719 407.554688 494.324219 443.074219 494.402344 445.414063 L 494.363281 445.542969 L 494.363281 489.660156 L 508.269531 489.660156 L 508.269531 457.121094 L 515.839844 471.96875 L 518.582031 471.96875 L 526.246094 457.121094 L 526.246094 466.089844 C 526.210938 466.863281 524.632813 507.703125 545.707031 515.738281 C 545.707031 515.738281 544.386719 512.792969 542.984375 508.023438 "/>
<path style=" stroke:none;fill-rule:nonzero;fill:rgb(6.278992%,5.741882%,5.058289%);fill-opacity:1;" d="M 625.230469 446.148438 C 624.820313 444.570313 624.128906 443.152344 623.152344 441.894531 C 622.171875 440.628906 620.863281 439.589844 619.222656 438.769531 C 617.585938 437.953125 615.535156 437.539063 613.078125 437.539063 L 605.003906 437.539063 C 596.484375 436.804688 590.089844 431.238281 590.089844 431.238281 L 590.089844 489.660156 L 602.953125 489.660156 L 602.953125 449.550781 L 609.101563 449.550781 C 610.742188 449.550781 611.800781 449.917969 612.273438 450.640625 C 612.746094 451.367188 612.984375 452.105469 612.984375 452.863281 L 612.984375 489.660156 L 625.847656 489.660156 L 625.847656 450.785156 C 625.847656 449.265625 625.640625 447.722656 625.230469 446.148438 "/>
</g>
</svg>
