<svg id="Capa_1" enable-background="new 0 0 512 512" height="512" viewBox="0 0 512 512" width="512" xmlns="http://www.w3.org/2000/svg"><g><path d="m367.892 437-3.89 34.97c-2.53 22.82-21.76 40.03-44.72 40.03h-126.3c-22.96 0-42.19-17.21-44.72-40.03l-3.89-34.97 111.76-21.09z" fill="#fff5f5"/><path d="m367.892 437-3.89 34.97c-2.53 22.82-21.76 40.03-44.72 40.03h-63.15v-96.09z" fill="#efe2dd"/><path d="m211.132 15h90v92h-90z" fill="#efe2dd"/><path d="m256.132 15h45v92h-45z" fill="#e1d3ce"/><path d="m331.132 107v60c0 8.28-6.72 15-15 15h-120c-8.28 0-15-6.72-15-15v-60c0-8.28 6.72-15 15-15h120c8.28 0 15 6.72 15 15z" fill="#fff5f5"/><path d="m331.132 107v60c0 8.28-6.72 15-15 15h-60v-90h60c8.28 0 15 6.72 15 15z" fill="#efe2dd"/><path d="m390.412 234.35-22.52 202.65h-223.52l-22.52-202.65c-4.86-43.81 29.75-82.35 74.28-82.35h120c44.61 0 79.13 38.62 74.28 82.35z" fill="#7ed8f6"/><path d="m390.412 234.35-22.52 202.65h-111.76v-285h60c44.61 0 79.13 38.62 74.28 82.35z" fill="#6aa9ff"/><g><g><path d="m331.132 15c0 8.28-6.72 15-15 15h-120c-24.81 0-45 20.19-45 45 0 8.28-6.72 15-15 15s-15-6.72-15-15c0-41.36 33.64-75 75-75h120c8.28 0 15 6.72 15 15z" fill="#7ed8f6"/></g></g><path d="m331.132 15c0 8.28-6.72 15-15 15h-60v-30h60c8.28 0 15 6.72 15 15z" fill="#6aa9ff"/><g><g><path d="m256.132 287c-33.08 0-60 26.92-60 60 0 27.24 17.3 33.73 44.62 31.01 5-.5 10.16-1.01 15.38-1.01s10.38.51 15.38 1.01c27.33 2.73 44.62-3.23 44.62-31.01 0-33.08-26.92-60-60-60z" fill="#fff5f5"/></g></g><path d="m316.132 347c0 27.78-17.29 33.74-44.62 31.01-5-.5-10.16-1.01-15.38-1.01v-90c33.08 0 60 26.92 60 60z" fill="#efe2dd"/><g><circle cx="203.099" cy="278.967" fill="#fff5f5" r="15"/></g><g><circle cx="309.165" cy="278.967" fill="#efe2dd" r="15"/></g><g><circle cx="256.132" cy="257" fill="#fff5f5" r="15"/></g><path d="m271.132 257c0 8.28-6.72 15-15 15v-30c8.28 0 15 6.72 15 15z" fill="#efe2dd"/></g></svg>