<svg id="Capa_1" enable-background="new 0 0 512.004 512.004" height="512" viewBox="0 0 512.004 512.004" width="512" xmlns="http://www.w3.org/2000/svg"><g><g><path d="m451.736 162.212-195.734-137.056-195.735 137.056v329.185h391.469z" fill="#ddaf89"/></g><g><path d="m451.736 372.128c-140.447 0-254.301-113.853-254.301-254.299v-51.664l-137.168 96.047v329.185h391.469z" fill="#c9a07d"/></g><g><path d="m60.267 139.008h391.469v93.248h-391.469z" fill="#c9a07d"/></g><g><path d="m198.32 139.008h-104.914l-33.139 23.204v70.044h164.321c-14.353-28.435-23.52-59.93-26.268-93.248z" fill="#ba8b68"/></g><g><path d="m60.267 325.504h391.469v93.248h-391.469z" fill="#c9a07d"/></g><g><path d="m304.947 325.504h-244.68v93.248h391.469v-46.624c-54.678 0-105.322-17.261-146.789-46.624z" fill="#ba8b68"/></g><g><g><path d="m491.38 206.04c-4.081 0-8.202-1.209-11.8-3.728l-223.578-156.553-223.579 156.553c-9.322 6.528-22.169 4.262-28.695-5.059-6.527-9.321-4.262-22.168 5.059-28.695l235.397-164.828c7.095-4.969 16.541-4.969 23.636 0l235.396 164.828c9.321 6.527 11.586 19.374 5.059 28.695-4.008 5.724-10.4 8.787-16.895 8.787z" fill="#a78c7e"/></g></g><g><path d="m171.982 79.381c-5.754-8.238-4.8-19.141 1.686-26.275l-164.881 115.452c-9.321 6.527-11.587 19.374-5.059 28.695 6.526 9.321 19.373 11.587 28.695 5.059l165.012-115.544c-8.973 3.76-19.656.914-25.453-7.387z" fill="#947c70"/></g><g><path d="m348.718 491.397h-185.433v-120.068c0-51.205 41.51-92.716 92.716-92.716 51.206 0 92.716 41.51 92.716 92.716v120.068z" fill="#a78c7e"/></g><g><path d="m256.002 319.821c-11.379 0-20.604-9.225-20.604-20.603s9.225-20.603 20.604-20.603c-51.206 0-92.716 41.51-92.716 92.716v120.067h92.716z" fill="#947c70"/></g><g><path d="m204.493 491.397v-120.068c0-28.402 23.107-51.508 51.509-51.508s51.509 23.106 51.509 51.508v120.067h-103.018z" fill="#495059"/></g><g><path d="m491.398 512h-470.793c-11.379 0-20.604-9.224-20.604-20.603 0-11.379 9.225-20.603 20.604-20.603h470.793c11.379 0 20.604 9.224 20.604 20.603 0 11.379-9.225 20.603-20.604 20.603z" fill="#a78c7e"/></g><g><path d="m142.428 491.397c0-11.379 9.224-20.603 20.604-20.603h-142.427c-11.379 0-20.604 9.225-20.604 20.603s9.225 20.603 20.604 20.603h142.426c-11.379 0-20.603-9.225-20.603-20.603z" fill="#947c70"/></g><g><path d="m338.598 209.134c2.111-3.59 3.282-7.798 3.176-12.288-.282-11.906-9.806-21.832-21.693-22.57-13.472-.837-24.659 9.842-24.659 23.133v.04c.002 2.103-1.717 3.824-3.82 3.824h-71.201c-2.103 0-3.822-1.721-3.82-3.824v-.04c0-13.291-11.187-23.97-24.659-23.133-11.886.738-21.41 10.664-21.692 22.57-.106 4.49 1.065 8.699 3.176 12.288 2.742 4.663 2.742 10.517 0 15.18-2.111 3.59-3.282 7.799-3.176 12.289.282 11.906 9.807 21.832 21.693 22.57 13.472.836 24.658-9.842 24.658-23.133v-.04c-.002-2.103 1.717-3.824 3.82-3.824h71.201c2.103 0 3.822 1.721 3.82 3.824v.04c0 13.291 11.187 23.969 24.659 23.133 11.886-.738 21.41-10.664 21.693-22.57.106-4.49-1.065-8.699-3.176-12.289-2.742-4.664-2.742-10.517 0-15.18z" fill="#f0f0ef"/></g><g><path d="m240.549 216.724c0-8.534 6.918-15.453 15.453-15.453h-35.601c-2.103 0-3.822-1.721-3.82-3.824v-.039c0-13.291-11.187-23.97-24.659-23.133-11.886.738-21.41 10.664-21.692 22.57-.106 4.49 1.065 8.699 3.176 12.288 2.742 4.663 2.742 10.517 0 15.18-2.111 3.59-3.282 7.799-3.176 12.289.282 11.906 9.807 21.832 21.693 22.57 13.472.837 24.658-9.842 24.658-23.133v-.039c-.002-2.103 1.717-3.824 3.82-3.824h35.601c-8.535 0-15.453-6.918-15.453-15.452z" fill="#e3e2e1"/></g></g></svg>