<?xml version="1.0" encoding="iso-8859-1"?>
<!-- Generator: Adobe Illustrator 19.0.0, SVG Export Plug-In . SVG Version: 6.00 Build 0)  -->
<svg version="1.1" id="Capa_1" xmlns="http://www.w3.org/2000/svg" xmlns:xlink="http://www.w3.org/1999/xlink" x="0px" y="0px"
	 viewBox="0 0 512 512" style="enable-background:new 0 0 512 512;" xml:space="preserve">
<path style="fill:#7A7A69;" d="M96.006,256c-4.418,0-8-3.582-8-8v-80c0-4.418,3.582-8,8-8s8,3.582,8,8v80
	C104.006,252.418,100.425,256,96.006,256z"/>
<path style="fill:#AED45B;" d="M232.006,0h-176c-4.418,0-8,3.582-8,8v160c0,4.418,3.582,8,8,8h176c4.418,0,8-3.582,8-8V8
	C240.006,3.582,236.425,0,232.006,0z"/>
<path style="fill:#9AC932;" d="M232.006,0h-16c4.418,0,8,3.582,8,8v160c0,4.418-3.582,8-8,8h16c4.418,0,8-3.582,8-8V8
	C240.006,3.582,236.425,0,232.006,0z"/>
<path style="fill:#FFFFFF;" d="M200.006,64h-32V32c0-4.418-3.582-8-8-8h-32c-4.418,0-8,3.582-8,8v32h-32c-4.418,0-8,3.582-8,8v32
	c0,4.418,3.582,8,8,8h32v32c0,4.418,3.582,8,8,8h32c4.418,0,8-3.582,8-8v-32h32c4.418,0,8-3.582,8-8V72
	C208.006,67.582,204.425,64,200.006,64z"/>
<path style="fill:#FDC572;" d="M416.006,288h-320c-4.418,0-8,3.582-8,8v208c0,4.418,3.582,8,8,8h320c4.418,0,8-3.582,8-8V296
	C424.006,291.582,420.424,288,416.006,288z"/>
<path style="fill:#FCB74F;" d="M424.006,296c0-4.418-3.582-8-8-8h-320c-4.418,0-8,3.582-8,8v24h336V296z"/>
<path style="fill:#EEEEEC;" d="M485.084,289.818l-224-184c-2.952-2.424-7.204-2.424-10.156,0l-224,184
	c-2.61,2.145-3.592,5.697-2.454,8.878c1.139,3.182,4.153,5.304,7.532,5.304h448c3.291,0,6.317-2.092,7.481-5.169
	C488.687,295.658,487.707,291.973,485.084,289.818z"/>
<path style="fill:#8B8A7B;" d="M255.217,328.004c-44.042,0.427-79.211,36.972-79.211,81.016V512h160V408
	C336.006,363.625,299.69,327.573,255.217,328.004z"/>
<path style="fill:#BDBCB4;" d="M256.058,199.914c-20.292,0-36.8,16.508-36.8,36.8c0,26.286,25.788,26.286,36.8,26.286
	s36.8,0,36.8-26.286C292.858,216.422,276.35,199.914,256.058,199.914z"/>
<g>
	<path style="fill:#9C9B8E;" d="M291.106,205.39c0-5.444,4.413-12.486,9.857-12.486s9.857,7.042,9.857,12.486
		s-4.413,9.857-9.857,9.857S291.106,210.834,291.106,205.39z"/>
	<path style="fill:#9C9B8E;" d="M265.258,183.486c0-5.444,4.413-12.486,9.857-12.486s9.857,7.042,9.857,12.486
		s-4.413,9.857-9.857,9.857C269.672,193.343,265.258,188.93,265.258,183.486z"/>
	<path style="fill:#9C9B8E;" d="M220.573,203.638c0-5.444-4.413-12.486-9.857-12.486s-9.857,7.042-9.857,12.486
		s4.413,9.857,9.857,9.857S220.573,209.082,220.573,203.638z"/>
	<path style="fill:#9C9B8E;" d="M246.858,183.486c0-5.444-4.413-12.486-9.857-12.486s-9.857,7.042-9.857,12.486
		s4.413,9.857,9.857,9.857S246.858,188.93,246.858,183.486z"/>
</g>
<path style="fill:#595943;" d="M280.012,424c-2.433,0.001-4.834-1.104-6.406-3.2l-17.6-23.467l-17.6,23.467
	c-2.65,3.534-7.667,4.25-11.2,1.601c-3.535-2.651-4.251-7.666-1.6-11.2l24-32c1.511-2.015,3.882-3.2,6.4-3.2
	c2.518,0,4.889,1.186,6.4,3.2l24,32c2.651,3.534,1.935,8.549-1.6,11.2C283.367,423.479,281.682,424,280.012,424z"/>
<path style="fill:#EEEEEC;" d="M296.006,408h-80c-4.418,0-8,3.582-8,8v40c0,4.418,3.582,8,8,8h80c4.418,0,8-3.582,8-8v-40
	C304.006,411.582,300.424,408,296.006,408z"/>
<g>
</g>
<g>
</g>
<g>
</g>
<g>
</g>
<g>
</g>
<g>
</g>
<g>
</g>
<g>
</g>
<g>
</g>
<g>
</g>
<g>
</g>
<g>
</g>
<g>
</g>
<g>
</g>
<g>
</g>
</svg>
