<svg id="Capa_1" enable-background="new 0 0 512 512" height="512" viewBox="0 0 512 512" width="512" xmlns="http://www.w3.org/2000/svg"><g><g><path d="m302.418 150-135-2.11-145.6-2.28c-5.86-5.86-5.86-15.36 0-21.22l55.6-49.39 60-15-60-15v-30c0-8.28 6.72-15 15-15h150c8.28 0 15 6.72 15 15v30l-60 15 60 15 55.61 49.39c9.47 9.48 2.63 25.61-10.61 25.61z" fill="#fff5f5"/></g><path d="m302.418 150-135-2.11v-147.89h75c8.28 0 15 6.72 15 15v30l-60 15 60 15 55.61 49.39c9.47 9.48 2.63 25.61-10.61 25.61z" fill="#efe2dd"/><path d="m317.418 135v212l-45.45 90c0 8.28-6.71 15-15 15h-224.55c-8.28 0-15-6.72-15-15v-302z" fill="#d97f4a"/><path d="m317.418 135v212l-45.45 90c0 8.28-6.71 15-15 15h-89.55v-317z" fill="#b34f03"/><g><path d="m137.418 60c0 8.28-6.72 15-15 15h-45v-30h45c8.28 0 15 6.72 15 15z" fill="#efe2dd"/></g><g><g><g><path d="m257.418 45v30h-45c-8.28 0-15-6.72-15-15s6.72-15 15-15z" fill="#e1d3ce"/></g></g></g><g><path d="m167.418 242c-33.08 0-60 26.92-60 60 0 27.29 17.37 33.73 44.62 31.01 6.77-.67 11.08-1.01 15.38-1.01s8.6.33 15.38 1.01c27.32 2.72 44.62-3.22 44.62-31.01 0-33.08-26.92-60-60-60z" fill="#fabe2c"/></g><path d="m227.418 302c0 27.79-17.3 33.73-44.62 31.01-6.78-.68-11.08-1.01-15.38-1.01v-90c33.08 0 60 26.92 60 60z" fill="#ff9100"/><g><g><circle cx="114.385" cy="233.967" fill="#fabe2c" r="15"/></g></g><g><circle cx="220.451" cy="233.967" fill="#ff9100" r="15"/></g><g><circle cx="167.418" cy="212" fill="#fabe2c" r="15"/></g><path d="m182.418 212c0 8.28-6.72 15-15 15v-30c8.28 0 15 6.72 15 15z" fill="#ff9100"/><g><path d="m465.468 399.61c-2.66-4.7-7.64-7.61-13.05-7.61h-180c-5.41 0-10.39 2.91-13.05 7.61-27.21 48.09-34.62 77.64-24.01 95.84 9.65 16.55 29.56 16.55 37.06 16.55h180c7.62 0 27.86 0 37.55-16.61 10.56-18.12 3.24-46.77-24.5-95.78z" fill="#ff6c6c"/></g><path d="m489.968 495.39c-9.69 16.61-29.93 16.61-37.55 16.61h-89.77v-120h89.77c5.41 0 10.39 2.91 13.05 7.61 27.74 49.01 35.06 77.66 24.5 95.78z" fill="#e63950"/><path d="m467.418 377c0 24.81-20.19 45-45 45h-120c-24.81 0-45-20.19-45-45 0-19.96 13.06-36.93 31.09-42.8 6.1-35.28 36.92-62.2 73.91-62.2h.23c36.89.11 67.59 26.99 73.68 62.2 18.03 5.87 31.09 22.84 31.09 42.8z" fill="#fed843"/><path d="m467.418 377c0 24.81-20.19 45-45 45h-59.77v-150c36.89.11 67.59 26.99 73.68 62.2 18.03 5.87 31.09 22.84 31.09 42.8z" fill="#fabe2c"/></g></svg>