<svg id="Capa_1" enable-background="new 0 0 512 512" height="512" viewBox="0 0 512 512" width="512" xmlns="http://www.w3.org/2000/svg"><g><g><path d="m256 0c-107.248 0-194.189 86.941-194.189 194.189v46.577h388.378v-46.577c0-107.248-86.941-194.189-194.189-194.189z" fill="#88c8e9"/></g><g><path d="m256 214.793c-60.035-33.339-56.748-180.501 0-214.793-107.248 0-194.189 86.941-194.189 194.189v46.577h194.189z" fill="#73b6d9"/></g><g><path d="m328.295 99.806c2.111-3.59 3.282-7.798 3.176-12.288-.282-11.906-9.806-21.832-21.693-22.57-13.472-.837-24.659 9.842-24.659 23.133v.04c.002 2.103-1.717 3.824-3.82 3.824h-50.598c-2.103 0-3.822-1.721-3.82-3.824v-.04c0-13.291-11.187-23.97-24.659-23.133-11.886.738-21.41 10.664-21.692 22.57-.106 4.49 1.065 8.699 3.176 12.288 2.742 4.663 2.742 10.517 0 15.18-2.111 3.59-3.282 7.799-3.176 12.289.282 11.906 9.807 21.832 21.693 22.57 13.472.836 24.658-9.842 24.658-23.133v-.04c-.002-2.103 1.717-3.824 3.82-3.824h50.598c2.103 0 3.822 1.721 3.82 3.824v.04c0 13.291 11.187 23.97 24.659 23.133 11.886-.738 21.41-10.664 21.693-22.57.106-4.49-1.065-8.699-3.176-12.289-2.742-4.663-2.742-10.516 0-15.18z" fill="#f0f0ef"/></g><g><path d="m240.547 107.396c0-8.534 6.918-15.453 15.453-15.453h-25.299c-2.103 0-3.822-1.721-3.82-3.824v-.039c0-13.291-11.187-23.97-24.659-23.133-11.886.738-21.41 10.664-21.692 22.57-.106 4.49 1.065 8.699 3.176 12.288 2.742 4.663 2.742 10.517 0 15.18-2.111 3.59-3.282 7.799-3.176 12.289.282 11.906 9.807 21.832 21.693 22.57 13.472.837 24.658-9.842 24.658-23.133v-.039c-.002-2.103 1.717-3.824 3.82-3.824h25.299c-8.534.001-15.453-6.917-15.453-15.452z" fill="#e3e2e1"/></g><g><path d="m125.518 214.793h260.965v123.622h-260.965z" fill="#e3e2e1"/></g><g><path d="m264.757 245.698h-139.239v41.207h139.239c11.379 0 20.604-9.225 20.604-20.604-.001-11.378-9.225-20.603-20.604-20.603z" fill="#cacdcf"/></g><g><path d="m185.433 329.024v-88.257c0-68.274-55.347-123.622-123.622-123.622-22.758 0-41.207 18.449-41.207 41.207v138.855z" fill="#f0f0ef"/></g><g><path d="m82.414 158.352c0-14.588 7.588-27.396 19.024-34.719-12.44-4.207-25.767-6.488-39.628-6.488-22.758 0-41.207 18.449-41.207 41.207v138.855l61.811 11.931z" fill="#e3e2e1"/></g><g><path d="m326.567 329.024v-88.257c0-68.274 55.347-123.622 123.622-123.622 22.758 0 41.207 18.449 41.207 41.207v138.855z" fill="#f0f0ef"/></g><g><path d="m330.721 339.664h-149.442l-55.761-42.457h-104.914v56.44c0 11.767 1.68 23.474 4.989 34.766l27.538 93.968c5.145 17.557 21.249 29.619 39.544 29.619h326.65c18.295 0 34.399-12.062 39.544-29.619l27.538-93.968c3.309-11.292 4.989-22.999 4.989-34.766v-56.44h-104.914z" fill="#a78c7e"/></g><g><g><g><ellipse cx="170.425" cy="435.608" fill="#fff" rx="31.575" ry="25.145"/></g><g><ellipse cx="341.575" cy="435.446" fill="#fff" rx="31.576" ry="25.145"/></g></g><g><path d="m188.786 416.476c-6.373 0-12.434-2.756-16.632-7.565-2.725-3.121-2.403-7.858.717-10.583 3.121-2.724 7.859-2.402 10.582.717 1.35 1.545 3.293 2.431 5.334 2.431h.007c2.046-.002 3.99-.891 5.338-2.44 2.721-3.126 7.458-3.455 10.581-.737 3.125 2.718 3.455 7.456.737 10.581-4.194 4.822-10.26 7.591-16.642 7.597-.006-.001-.015-.001-.022-.001z" fill="#495059"/></g><g><path d="m323.132 416.349c-6.372 0-12.434-2.756-16.632-7.564-2.725-3.12-2.403-7.858.717-10.583s7.858-2.405 10.582.716c1.349 1.545 3.293 2.431 5.334 2.431h.007c2.045-.002 3.989-.891 5.337-2.44 2.721-3.126 7.458-3.454 10.581-.737 3.125 2.718 3.455 7.456.737 10.581-4.194 4.822-10.26 7.591-16.641 7.597-.007-.001-.015-.001-.022-.001z" fill="#495059"/></g><g><path d="m256 428.347c-8.668 0-16.911-3.754-22.615-10.299-2.722-3.123-2.396-7.86.727-10.582 3.122-2.722 7.859-2.396 10.582.726 2.854 3.276 6.976 5.154 11.307 5.154s8.452-1.878 11.307-5.154c2.722-3.123 7.46-3.448 10.582-.726 3.123 2.721 3.448 7.459.727 10.582-5.706 6.545-13.949 10.299-22.617 10.299z" fill="#495059"/></g></g><g><path d="m114.942 482.382-27.538-93.968c-3.309-11.292-4.989-22.999-4.989-34.766v-56.44h-61.811v56.44c0 11.767 1.68 23.474 4.989 34.766l27.538 93.968c5.145 17.556 21.249 29.618 39.544 29.618h61.811c-18.295 0-34.399-12.062-39.544-29.618z" fill="#947c70"/></g><g><path d="m491.396 276.604h-103.341c-9.688 0-19.066 3.413-26.488 9.641l-31.875 26.746c-3.711 3.114-8.4 4.82-13.244 4.82h-120.896c-4.844 0-9.533-1.707-13.244-4.82l-31.875-26.746c-7.421-6.227-16.8-9.641-26.488-9.641h-103.341c-11.379 0-20.604 9.224-20.604 20.603 0 11.379 9.225 20.604 20.604 20.604h95.843c4.844 0 9.533 1.707 13.244 4.82l31.875 26.746c7.421 6.227 16.8 9.641 26.488 9.641h135.895c9.688 0 19.066-3.413 26.488-9.641l31.875-26.746c3.711-3.114 8.4-4.82 13.244-4.82h95.843c11.379 0 20.604-9.225 20.604-20.604-.003-11.379-9.227-20.603-20.607-20.603z" fill="#ddaf89"/></g><g><path d="m235.396 338.414c0-11.379 9.225-20.604 20.604-20.604h-60.448c-4.844 0-9.533-1.707-13.244-4.82l-31.875-26.746c-7.421-6.227-16.8-9.641-26.487-9.641h-103.342c-11.379.001-20.604 9.225-20.604 20.604s9.225 20.604 20.604 20.604h95.843c4.844 0 9.533 1.707 13.244 4.82l31.875 26.746c7.421 6.227 16.8 9.641 26.488 9.641h67.946c-11.379 0-20.604-9.224-20.604-20.604z" fill="#c9a07d"/></g></g></svg>