<svg id="Capa_1" enable-background="new 0 0 512.133 512.133" height="512" viewBox="0 0 512.133 512.133" width="512" xmlns="http://www.w3.org/2000/svg"><g><path d="m355.332 240.143-113.55 113.551-66.6-18.25-22.76-62.091 118.06-118.059 70 14.849z" fill="#efe2dd"/><path d="m355.332 240.143-113.55 113.551-66.6-18.25 165.3-165.301z" fill="#e1d3ce"/><path d="m254.943 409.593-8.894-68.435c-.973-7.482-7.346-13.067-14.872-13.067-.06 0-.12 0-.181.001l-61.718.73c-8.283.098-14.919 6.893-14.821 15.177l5.985 89.647c-.778 8.248 5.277 15.564 13.524 16.342 33.079 3.057 32.592 3.223 36.258 3.223 28.866 0 46.846-27.199 44.719-43.618z" fill="#cdbfba"/><path d="m90.436 339.471c.787-8.247-5.26-15.57-13.506-16.357l-24.301-2.32c-24.299-2.32-46.272 15.525-48.996 39.775l-3.346 29.806c-2.809 25.014 15.39 47.427 40.443 49.818 44.02 4.178 41.954 4.062 43.279 4.064 7.648.008 14.19-5.808 14.931-13.576z" fill="#e1d3ce"/><path d="m454.652 204.387-3.024-32.058c-.778-8.248-8.085-14.304-16.343-13.525l-89.667-4.282c-8.284-.111-15.078 6.538-15.177 14.822l-.71 60.014c-.09 7.604 5.524 14.072 13.065 15.052 20.979 2.726 44.012 7.471 63.209 7.47 35.59-.001 51.376-18.56 48.647-47.493z" fill="#cdbfba"/><path d="m443.237 84.328-3.903-41.861c-2.334-25.049-24.698-43.307-49.728-40.553l-29.814 3.281c-24.256 2.669-42.148 24.609-39.884 48.907l2.266 24.307c.768 8.249 8.062 14.31 16.328 13.543 95.456 9.206 89.026 8.907 91.193 8.704 8.247-.769 14.311-8.079 13.542-16.328z" fill="#e1d3ce"/><g><path d="m471.352 71.554-29.5-2.78-135.61-12.8c-24.31-2.29-46.26 15.58-48.95 39.83-.37 3.25-.21.62 8.92 72.02.93 7.16 6.83 12.64 14.03 13.05.03 0 20.06 1.13 46.87 2.64 54.08 3.05 135.75 7.65 136.68 7.65 22.57 0 42.21-17.18 44.75-40.03l3.31-29.81c2.78-25.01-15.44-47.41-40.5-49.77z" fill="#fff5f5"/></g><path d="m511.852 121.324-3.31 29.81c-2.54 22.85-22.18 40.03-44.75 40.03-.93 0-82.6-4.6-136.68-7.65l114.74-114.74 29.5 2.78c25.06 2.36 43.28 24.76 40.5 49.77z" fill="#efe2dd"/><g><path d="m192.622 458.143-9.3-130.84-3.13-43.94c-.47-6.69-5.32-12.25-11.88-13.62-33.69-7.07-75.71-22.1-98.62-2.19-9.55 8.29-13.62 20.76-12.08 37.05l12.8 135.61 2.78 29.5c2.23 23.65 22.14 40.78 44.7 40.78 4.41 0 4.8-.33 34.88-3.59 24.19-2.689 42.03-24.539 39.85-48.76z" fill="#fff5f5"/></g><path d="m152.772 506.904c-30.08 3.26-30.47 3.59-34.88 3.59-22.56 0-42.47-17.13-44.7-40.78l-2.78-29.5 112.91-112.91 9.3 130.84c2.18 24.22-15.66 46.07-39.85 48.76z" fill="#efe2dd"/></g></svg>