<svg id="Capa_1" enable-background="new 0 0 512 512" height="512" viewBox="0 0 512 512" width="512" xmlns="http://www.w3.org/2000/svg"><g><path d="m301 15v92c0 8.28-6.72 15-15 15h-180c-8.28 0-15-6.72-15-15v-92c0-8.28 6.72-15 15-15h180c8.28 0 15 6.72 15 15z" fill="#fed843"/><path d="m301 15v92c0 8.28-6.72 15-15 15h-90v-122h90c8.28 0 15 6.72 15 15z" fill="#fabe2c"/><path d="m331 168v224l-30 120h-195c-24.81 0-45-20.19-45-45v-299l135-7.5z" fill="#ff6c6c"/><path d="m331 168v224l-30 120h-105v-351.5z" fill="#e63950"/><path d="m391 392h-45l-26 61 26 59h45c33.084 0 60-26.916 60-60s-26.916-60-60-60z" fill="#29376d"/><path d="m256 303c0 8.28-6.72 15-15 15h-30v30c0 8.28-6.72 15-15 15s-15-6.72-15-15v-30h-30c-8.28 0-15-6.72-15-15s6.72-15 15-15h30v-30c0-8.28 6.72-15 15-15s15 6.72 15 15v30h30c8.28 0 15 6.72 15 15z" fill="#fff5f5"/><path d="m256 303c0 8.28-6.72 15-15 15h-30v30c0 8.28-6.72 15-15 15v-120c8.28 0 15 6.72 15 15v30h30c8.28 0 15 6.72 15 15z" fill="#efe2dd"/><path d="m331 138v30h-270v-30c0-24.81 20.19-45 45-45h180c24.81 0 45 20.19 45 45z" fill="#fff5f5"/><path d="m331 138v30h-135v-75h90c24.81 0 45 20.19 45 45z" fill="#efe2dd"/><path d="m301 392c-33.084 0-60 26.916-60 60s26.916 60 60 60h45v-120z" fill="#7ed8f6"/></g></svg>