<?xml version="1.0" encoding="iso-8859-1"?>
<!-- Generator: Adobe Illustrator 19.0.0, SVG Export Plug-In . SVG Version: 6.00 Build 0)  -->
<svg version="1.1" id="Capa_1" xmlns="http://www.w3.org/2000/svg" xmlns:xlink="http://www.w3.org/1999/xlink" x="0px" y="0px"
	 viewBox="0 0 512.001 512.001" style="enable-background:new 0 0 512.001 512.001;" xml:space="preserve">
<path style="fill:#DEDED9;" d="M241.447,61.82L120.729,382.878c-6.911-10.061-17.165-17.988-29.935-21.869
	c-26.503-8.053-55.31,4.822-66.951,29.956c-13.848,29.899,0.781,64.691,31.054,76.073c82.37,30.971,109.627-86.982,168.754-244.234
	c24.288-64.595,26.318-128.725,25.54-159.679C249.08,58.73,242.995,57.704,241.447,61.82z M63.343,444.574
	c-16.542-6.22-24.91-24.673-18.69-41.215s24.673-24.91,41.215-18.69s24.91,24.672,18.69,41.215
	C98.338,442.426,79.886,450.794,63.343,444.574z"/>
<path style="fill:#CDCDC7;" d="M168.377,256.155L128.92,361.092l22.364,48.145c13.177-25.726,25.642-58.205,39.136-95.25
	L168.377,256.155z"/>
<path style="fill:#DEDED9;" d="M96.349,222.805c58.161,154.681,85.485,271.338,164.759,245.634
	c30.663-9.943,47.99-42.981,36.818-73.218c-10.771-29.153-43.189-43.939-72.241-33.016c-11.14,4.189-20.15,11.555-26.414,20.673
	L78.553,61.82c-1.548-4.116-7.633-3.091-7.744,1.305C70.031,94.08,72.062,158.21,96.349,222.805z M215.442,425.884
	c-6.22-16.542,2.148-34.995,18.69-41.215s34.995,2.148,41.215,18.69s-2.148,34.995-18.69,41.215
	C240.114,450.794,221.662,442.426,215.442,425.884z"/>
<circle style="fill:#6A6956;" cx="159.5" cy="332.4" r="7.5"/>
<path style="fill:#F498AC;" d="M450.217,272.089C469.46,246.192,493.41,213.962,493.41,152c0-40.026-10.463-77.763-29.461-106.261
	C444.285,16.244,417.813,0,389.41,0s-54.875,16.244-74.539,45.739C295.872,74.237,285.41,111.974,285.41,152
	c0,61.962,23.949,94.192,43.192,120.089c11.125,14.972,19.912,26.798,21.232,40.669c4.6,48.345-2.56,75.157-8.877,98.813
	c-3.882,14.538-7.548,28.269-7.548,44.43c0,17.375,5.754,31.859,16.64,41.884C360.076,507.119,373.686,512,389.41,512
	s29.334-4.881,39.36-14.116c10.886-10.025,16.64-24.509,16.64-41.884c0-16.161-3.666-29.892-7.548-44.43
	c-6.317-23.656-13.477-50.467-8.877-98.813C430.305,298.887,439.092,287.061,450.217,272.089z"/>
<path style="fill:#F17E97;" d="M450.217,272.089C469.46,246.192,493.41,213.962,493.41,152c0-40.026-10.463-77.763-29.461-106.261
	C444.285,16.244,417.813,0,389.41,0c-2.685,0-5.353,0.146-8,0.434c25.348,2.757,48.734,18.598,66.539,45.305
	C466.947,74.237,477.41,111.974,477.41,152c0,61.962-23.949,94.192-43.192,120.089c-11.125,14.972-19.912,26.798-21.232,40.669
	c-4.6,48.345,2.56,75.157,8.877,98.813c3.882,14.538,7.548,28.269,7.548,44.43c0,17.375-5.754,31.859-16.64,41.884
	c-8.282,7.629-19.015,12.277-31.36,13.666c2.599,0.292,5.265,0.45,8,0.45c15.724,0,29.334-4.881,39.36-14.116
	c10.886-10.025,16.64-24.509,16.64-41.884c0-16.161-3.666-29.892-7.548-44.43c-6.317-23.656-13.477-50.467-8.877-98.813
	C430.305,298.887,439.092,287.061,450.217,272.089z"/>
<path style="fill:#DEDED9;" d="M441.611,68.835C428.037,45.082,409.498,32,389.41,32s-38.628,13.082-52.201,36.835
	C324.441,91.178,317.41,120.713,317.41,152s7.031,60.822,19.799,83.165C350.782,258.918,369.321,272,389.41,272
	s38.628-13.082,52.201-36.835c12.768-22.343,19.799-51.878,19.799-83.165S454.378,91.178,441.611,68.835z"/>
<path style="fill:#CDCDC7;" d="M441.611,68.835C428.037,45.082,409.498,32,389.41,32c-2.698,0-5.366,0.244-8,0.71
	c16.977,3.004,32.451,15.562,44.201,36.125C438.378,91.178,445.41,120.713,445.41,152s-7.031,60.822-19.799,83.165
	c-11.75,20.563-27.224,33.121-44.201,36.125c2.634,0.466,5.302,0.71,8,0.71c20.089,0,38.628-13.082,52.201-36.835
	c12.768-22.343,19.799-51.878,19.799-83.165S454.378,91.178,441.611,68.835z"/>
<g>
	<circle style="fill:#7A7A69;" cx="373.41" cy="87.5" r="7.5"/>
	<circle style="fill:#7A7A69;" cx="341.91" cy="87.5" r="7.5"/>
	<circle style="fill:#7A7A69;" cx="405.91" cy="87.5" r="7.5"/>
	<circle style="fill:#7A7A69;" cx="437.91" cy="87.5" r="7.5"/>
	<circle style="fill:#7A7A69;" cx="373.41" cy="119.5" r="7.5"/>
	<circle style="fill:#7A7A69;" cx="341.91" cy="119.5" r="7.5"/>
	<circle style="fill:#7A7A69;" cx="405.91" cy="119.5" r="7.5"/>
	<circle style="fill:#7A7A69;" cx="437.91" cy="119.5" r="7.5"/>
	<circle style="fill:#7A7A69;" cx="373.41" cy="151.5" r="7.5"/>
	<circle style="fill:#7A7A69;" cx="341.91" cy="151.5" r="7.5"/>
	<circle style="fill:#7A7A69;" cx="405.91" cy="151.5" r="7.5"/>
	<circle style="fill:#7A7A69;" cx="437.91" cy="151.5" r="7.5"/>
	<circle style="fill:#7A7A69;" cx="373.41" cy="183.5" r="7.5"/>
	<circle style="fill:#7A7A69;" cx="341.91" cy="183.5" r="7.5"/>
	<circle style="fill:#7A7A69;" cx="405.91" cy="183.5" r="7.5"/>
	<circle style="fill:#7A7A69;" cx="437.91" cy="183.5" r="7.5"/>
	<circle style="fill:#7A7A69;" cx="373.41" cy="215" r="7.5"/>
	<circle style="fill:#7A7A69;" cx="341.91" cy="215" r="7.5"/>
	<circle style="fill:#7A7A69;" cx="405.91" cy="215" r="7.5"/>
	<circle style="fill:#7A7A69;" cx="436.91" cy="215" r="7.5"/>
	<circle style="fill:#7A7A69;" cx="372.91" cy="56.5" r="7.5"/>
	<circle style="fill:#7A7A69;" cx="405.91" cy="56.5" r="7.5"/>
	<circle style="fill:#7A7A69;" cx="373.91" cy="247.5" r="7.5"/>
	<circle style="fill:#7A7A69;" cx="404.91" cy="247.5" r="7.5"/>
</g>
<path style="fill:#FDC572;" d="M429.968,376c-2.484-16.613-3.511-36.671-0.983-63.242c0.024-0.255,0.069-0.504,0.098-0.758h-79.347
	c0.029,0.253,0.074,0.503,0.098,0.758c2.528,26.571,1.5,46.629-0.983,63.242H429.968z"/>
<path style="fill:#FCB74F;" d="M413.968,376h16c-2.484-16.613-3.511-36.671-0.983-63.242c0.024-0.255,0.069-0.504,0.098-0.758h-16
	c-0.029,0.253-0.074,0.503-0.098,0.758C410.457,339.329,411.484,359.387,413.968,376z"/>
<g>
</g>
<g>
</g>
<g>
</g>
<g>
</g>
<g>
</g>
<g>
</g>
<g>
</g>
<g>
</g>
<g>
</g>
<g>
</g>
<g>
</g>
<g>
</g>
<g>
</g>
<g>
</g>
<g>
</g>
</svg>
